<?xml version="1.0" standalone="no"?>
<!DOCTYPE svg PUBLIC "-//W3C//DTD SVG 20010904//EN"
 "http://www.w3.org/TR/2001/REC-SVG-20010904/DTD/svg10.dtd">
<svg version="1.0" xmlns="http://www.w3.org/2000/svg"
 width="260.000000pt" height="260.000000pt" viewBox="0 0 260.000000 260.000000"
 preserveAspectRatio="xMidYMid meet">
<metadata>
Created by potrace 1.14, written by Peter Selinger 2001-2017
</metadata>
<g transform="translate(0.000000,260.000000) scale(0.100000,-0.100000)"
fill="#000000" stroke="none">
<path d="M0 1300 l0 -1300 1300 0 1300 0 0 1300 0 1300 -1300 0 -1300 0 0
-1300z m898 1241 c98 -12 205 -64 262 -128 54 -62 74 -130 68 -237 -6 -98 -36
-165 -106 -235 -149 -149 -406 -46 -337 135 18 48 42 69 103 89 23 8 38 20 40
33 5 32 -49 47 -168 47 -94 -1 -112 -4 -168 -30 -72 -32 -146 -108 -162 -165
-6 -19 -10 -90 -10 -157 0 -116 5 -137 33 -154 1 -1 81 -5 177 -9 146 -6 185
-11 235 -30 104 -39 207 -162 264 -315 30 -81 62 -279 64 -400 2 -106 1 -113
-34 -195 -20 -47 -44 -106 -53 -132 -55 -152 -196 -217 -470 -218 -108 0 -141
4 -215 25 -47 14 -109 33 -138 41 -65 18 -141 69 -170 113 -41 61 -23 148 38
192 44 31 126 32 184 2 22 -11 84 -33 138 -48 87 -24 110 -27 205 -23 59 2
116 9 128 16 13 7 33 45 57 109 35 95 36 100 27 178 -22 197 -58 306 -119 357
-28 24 -37 26 -198 31 -92 3 -185 10 -206 17 -97 29 -212 141 -237 228 -16 59
-13 352 6 432 26 114 129 262 229 325 151 97 319 130 533 106z m1481 -120 c14
-9 34 -30 45 -45 23 -30 22 -12 14 -356 -3 -121 0 -146 25 -245 38 -149 85
-398 99 -520 23 -212 -11 -551 -65 -650 -28 -50 -76 -82 -135 -91 -26 -4 -83
-17 -126 -30 -76 -23 -94 -24 -373 -24 -326 0 -336 2 -390 64 -56 63 -67 122
-68 376 -1 124 -7 257 -13 295 -7 46 -11 250 -11 595 -1 499 0 527 19 568 15
34 29 47 66 64 81 35 150 10 192 -72 22 -44 22 -45 22 -557 0 -414 3 -533 16
-616 10 -67 14 -155 13 -257 l-3 -155 200 -3 c184 -2 204 0 268 20 85 28 85
26 93 233 7 198 -4 278 -112 770 -24 107 -26 135 -21 255 6 183 21 295 43 333
39 69 141 93 202 48z"/>
</g>
</svg>
